<?xml version="1.0" encoding="UTF-8" standalone="no"?>
<!-- Created with Inkscape (http://www.inkscape.org/) -->

<svg
   width="108.87595mm"
   height="52.882988mm"
   viewBox="0 0 108.87595 52.882988"
   version="1.1"
   id="svg5"
   inkscape:version="1.2.1 (ef4d3fba62, 2022-07-19, custom)"
   sodipodi:docname="logo1"
   xmlns:inkscape="http://www.inkscape.org/namespaces/inkscape"
   xmlns:sodipodi="http://sodipodi.sourceforge.net/DTD/sodipodi-0.dtd"
   xmlns="http://www.w3.org/2000/svg"
   xmlns:svg="http://www.w3.org/2000/svg">
  <sodipodi:namedview
     id="namedview7"
     pagecolor="#ffffff"
     bordercolor="#666666"
     borderopacity="1.0"
     inkscape:showpageshadow="2"
     inkscape:pageopacity="0.0"
     inkscape:pagecheckerboard="0"
     inkscape:deskcolor="#d1d1d1"
     inkscape:document-units="mm"
     showgrid="false"
     inkscape:zoom="0.75722503"
     inkscape:cx="34.996202"
     inkscape:cy="340.05743"
     inkscape:window-width="1848"
     inkscape:window-height="1016"
     inkscape:window-x="72"
     inkscape:window-y="27"
     inkscape:window-maximized="1"
     inkscape:current-layer="layer1" />
  <defs
     id="defs2">
    <linearGradient
       id="linearGradient912"
       inkscape:swatch="solid">
      <stop
         style="stop-color:#000000;stop-opacity:1;"
         offset="0"
         id="stop910" />
    </linearGradient>
    <filter
       inkscape:collect="always"
       style="color-interpolation-filters:sRGB"
       id="filter906"
       x="-0.0039102108"
       y="-0.0078895895"
       width="1.0078204"
       height="1.0157792">
      <feGaussianBlur
         inkscape:collect="always"
         stdDeviation="0.17251882"
         id="feGaussianBlur908" />
    </filter>
  </defs>
  <g
     inkscape:label="Calque 1"
     inkscape:groupmode="layer"
     id="layer1"
     transform="translate(-25.752172,-28.796543)">
    <path
       style="color:#000000;fill:#ffffff;stroke-width:3.018;stroke-linecap:round;stroke-linejoin:bevel;stroke-miterlimit:9.4;-inkscape-stroke:none;filter:url(#filter906)"
       d="M 10.720604,19.631327 H 116.6088 V 72.111265 H 10.720604 Z"
       id="path1063"
       transform="matrix(0.8220503,0,0.33081692,0.93807799,12.356048,12.206455)" />
    <path
       style="color:#000000;fill:#000000;stroke-linecap:round;stroke-linejoin:bevel;stroke-miterlimit:9.4;-inkscape-stroke:none;filter:url(#filter906)"
       d="m 10.720703,18.123047 -1.5097655,1.507812 v 52.480469 l 1.5097655,1.509766 H 116.60938 l 1.50781,-1.509766 V 19.630859 l -1.50781,-1.507812 z m 1.509766,3.017578 H 115.09961 V 70.601562 H 12.230469 Z"
       id="path1065"
       transform="matrix(0.8220503,0,0.33081692,0.93807799,12.679825,12.206455)" />
    <path
       d="m 82.455892,57.957295 3.783077,6.808516 q 0.735393,-0.508098 0.968777,-1.402351 0.253708,-0.894253 -0.104656,-1.910449 -0.523214,-1.483647 -1.857128,-2.499843 -1.333915,-1.016197 -2.79007,-0.995873 z M 77.28186,48.933472 q 1.144526,-1.422675 1.479629,-2.662434 0.396174,-1.585267 -0.256052,-3.434744 -0.229354,-0.650366 -0.766022,-1.077168 -0.516345,-0.426803 -1.166711,-0.426803 -1.016196,0 -1.298771,1.503971 -0.217971,1.341379 0.183399,2.479519 0.494546,1.402351 1.824528,3.617659 z m 1.669301,2.946969 2.401845,4.044462 0.784287,-0.0813 q 1.603234,-0.121944 3.509653,1.422675 1.926741,1.544618 2.535963,3.272152 0.551884,1.564942 0.07569,2.865674 -0.464214,1.219435 -1.689837,1.951097 0.736075,1.280407 1.479318,2.581138 0.869899,1.544619 1.242599,2.601463 0.58772,1.666562 -0.164562,2.703082 -0.724792,1.056844 -2.411678,1.056844 -1.422675,0 -2.829539,-0.9349 -1.406866,-0.934901 -1.908578,-2.357576 -0.279524,-0.792633 -0.03544,-1.483646 0.282376,-0.812957 1.196953,-0.812957 0.751985,0 1.330479,0.487774 0.605985,0.508098 0.871177,1.260083 0.229354,0.650366 -0.06608,1.13814 -0.288269,0.508098 -0.857339,0.508098 -0.548746,0 -0.870295,-0.162591 -0.321551,-0.162592 -0.595284,-0.304859 0.347662,0.812957 1.517908,1.422675 1.067447,0.548746 1.941376,0.548746 1.422675,0 2.036224,-0.853605 0.633872,-0.853605 0.139328,-2.255956 -0.351198,-0.995872 -1.172103,-2.459195 -0.700239,-1.178788 -1.407646,-2.377899 -0.86205,0.264211 -1.837599,0.264211 -2.845349,0 -5.672134,-2.194984 -2.723991,-2.134013 -3.734581,-4.999686 -1.089432,-3.089237 0.03154,-5.731348 0.193814,-0.487774 2.100346,-3.495715 -0.755223,-1.219436 -1.551092,-2.438871 -0.87471,-1.442999 -1.240242,-2.479519 -0.487378,-1.382027 -0.06361,-3.292476 0.474033,-2.113689 1.726951,-2.134013 0.955224,0 2.468122,2.215308 1.240441,1.788506 1.656145,2.967294 0.523214,1.483646 0.241618,3.739602 -0.288764,2.235632 -1.179879,3.800574 z m 6.688791,13.088609 -3.826081,-6.930459 q -0.821401,0.264211 -1.144427,1.077168 -0.323025,0.812957 0.01384,1.768182 0.351198,0.995872 1.242897,1.564942 0.521155,0.325183 1.898272,0.772309 0.01552,0.10162 -0.289347,0.10162 -1.50397,0 -2.737443,-1.077168 -1.164155,-0.995873 -1.701703,-2.520167 -0.43004,-1.219436 0.111836,-2.27628 0.483262,-0.9349 1.552183,-1.361703 l -2.260852,-3.759926 q -3.079628,4.003813 -1.689168,7.946655 0.688062,1.951097 2.945976,3.455068 2.250747,1.483646 4.28314,1.483646 0.873929,0 1.600878,-0.243887 z"
       id="path1058"
       inkscape:label="path1058"
       style="font-size:20.8117px;line-height:1.25;font-family:Guido2;-inkscape-font-specification:'Guido2, Normal';display:inline;stroke-width:0.520294" />
  </g>
</svg>
